<?xml version="1.0" encoding="utf-8"?>
<!-- Generator: Adobe Illustrator 18.1.1, SVG Export Plug-In . SVG Version: 6.00 Build 0)  -->
<svg version="1.1" id="Capa_1" xmlns="http://www.w3.org/2000/svg" xmlns:xlink="http://www.w3.org/1999/xlink" x="0px" y="0px"
	 width="316px" height="800px" viewBox="0 0 316 800" enable-background="new 0 0 316 800" xml:space="preserve">
<line fill="none" stroke="#DCDCDC" stroke-width="10" stroke-linecap="round" stroke-linejoin="round" stroke-miterlimit="10" x1="161.1" y1="369.9" x2="161.1" y2="349.9"/>
<g>
	<g>
		<path fill="#DCDCDC" d="M48.1,433.5c-2.8,0-5-2.2-5-5v-0.2c0-18.6,13.6-33.8,30.4-33.8h62.5c11.1,0,20.1-11,20.1-24.6v-1.4
			c0-2.8,2.2-5,5-5c2.8,0,5,2.2,5,5v1.4c0,19.1-13.5,34.6-30.1,34.6H73.5c-11.3,0-20.4,10.7-20.4,23.8v0.2
			C53.1,431.2,50.8,433.5,48.1,433.5z"/>
	</g>
	<g>
		<path fill="#DCDCDC" d="M272.1,433.5c-2.8,0-5-2.2-5-5v-0.2c0-13.1-9-23.8-20.1-23.8h-61c-16.5,0-29.9-15.5-29.9-34.6v-1.4
			c0-2.8,2.2-5,5-5c2.8,0,5,2.2,5,5v1.4c0,13.3,9.1,24.6,19.9,24.6h61c16.6,0,30.1,15.1,30.1,33.8v0.2
			C277.1,431.2,274.8,433.5,272.1,433.5z"/>
	</g>
</g>
<g>
	<path fill="#DCDCDC" d="M160.4,323.2c-2.8,0-5-2.2-5-5v-122c0-2.8,2.2-5,5-5s5,2.2,5,5v122C165.4,321,163.2,323.2,160.4,323.2z"/>
</g>
<g>
	<path fill="#DCDCDC" d="M56.9,323.2c-2,0-3.9-1.2-4.7-3.2c-1-2.6,0.2-5.5,2.8-6.5c0.2-0.1,20.5-8.3,40.4-26.9
		c26.5-24.7,39.9-55.1,39.9-90.5c0-2.8,2.2-5,5-5s5,2.2,5,5c0,47.8-23.6,79.7-43.3,98c-21.3,19.8-42.4,28.3-43.3,28.6
		C58.2,323.1,57.6,323.2,56.9,323.2z"/>
</g>
<g>
	<path fill="#DCDCDC" d="M264.4,323.2c-0.6,0-1.2-0.1-1.8-0.4c-0.9-0.4-22-8.8-43.3-28.6c-19.8-18.4-43.3-50.3-43.3-98
		c0-2.8,2.2-5,5-5s5,2.2,5,5c0,35.3,13.4,65.8,39.9,90.5c20,18.6,40.2,26.8,40.5,26.9c2.6,1,3.8,3.9,2.8,6.5
		C268.3,322,266.4,323.2,264.4,323.2z"/>
</g>
<path fill="#EDEDED" d="M85.1,322.8c0,15.5-12.6,28.1-28.1,28.1s-28.1-12.6-28.1-28.1c0-15.5,12.6-28.1,28.1-28.1
	S85.1,307.2,85.1,322.8z"/>
<path fill="#EDEDED" d="M290.1,322.8c0,15.5-12.6,28.1-28.1,28.1s-28.1-12.6-28.1-28.1c0-15.5,12.6-28.1,28.1-28.1
	S290.1,307.2,290.1,322.8z"/>
<g>
	<path fill="#9A9A9A" d="M75.9,322.7c0,10.5-8.5,19-19,19s-19-8.5-19-19c0-10.5,8.5-19,19-19S75.9,312.2,75.9,322.7z"/>
	<g>
		<path fill="#FFFFFF" d="M66.3,314.7H47.6c-1.7,0-3.1,1.4-3.1,3.1c0,1.7,1.4,3.1,3.1,3.1c1.1,0,2.1-0.9,2.1-2.1
			c0-1.1-0.9-2.1-2.1-2.1c-0.6,0-1,0.5-1,1s0.5,1,1,1v-0.9c-0.1,0-0.1,0-0.1-0.1c0-0.1,0-0.1,0.1-0.1c0.6,0,1.2,0.5,1.2,1.1
			c0,0.6-0.5,1.1-1.2,1.1c-1.2,0-2.2-1-2.2-2.2c0-1.2,1-2.2,2.2-2.2h18.7c1.2,0,2.2,1,2.2,2.2c0,1.2-1,2.2-2.2,2.2
			c-0.6,0-1.2-0.5-1.2-1.1c0-0.6,0.5-1.1,1.2-1.1c0,0,0.1,0,0.1,0.1c0,0.1-0.1,0.1-0.1,0.1v0.9c0.6,0,1-0.5,1-1s-0.5-1-1-1
			c-1.1,0-2.1,0.9-2.1,2.1c0,1.1,0.9,2.1,2.1,2.1c1.7,0,3.1-1.4,3.1-3.1C69.4,316.1,68,314.7,66.3,314.7z"/>
		<rect x="50.1" y="316.5" fill="#FFFFFF" width="14" height="1"/>
		<polygon fill="#FFFFFF" points="51.1,319.5 52.1,319.5 52.1,341 53.1,341.3 53.1,319.5 55.1,319.5 55.1,341.5 56.1,341.5 
			56.1,319.5 58.1,319.5 58.1,341.5 59.1,341.5 59.1,319.5 61.1,319.5 61.1,340.5 62.1,340.5 62.1,319.5 63.1,319.5 63.1,318.5 
			50.8,318.5 		"/>
	</g>
</g>
<g>
	<path fill="#9A9A9A" d="M280.9,322.7c0,10.5-8.5,19-19,19s-19-8.5-19-19c0-10.5,8.5-19,19-19S280.9,312.2,280.9,322.7z"/>
	<g>
		<path fill="#FFFFFF" d="M271.3,314.7h-18.7c-1.7,0-3.1,1.4-3.1,3.1c0,1.7,1.4,3.1,3.1,3.1c1.1,0,2.1-0.9,2.1-2.1
			c0-1.1-0.9-2.1-2.1-2.1c-0.6,0-1,0.5-1,1s0.5,1,1,1v-0.9c-0.1,0-0.1,0-0.1-0.1c0-0.1,0-0.1,0.1-0.1c0.6,0,1.2,0.5,1.2,1.1
			c0,0.6-0.5,1.1-1.2,1.1c-1.2,0-2.2-1-2.2-2.2c0-1.2,1-2.2,2.2-2.2h18.7c1.2,0,2.2,1,2.2,2.2c0,1.2-1,2.2-2.2,2.2
			c-0.6,0-1.2-0.5-1.2-1.1c0-0.6,0.5-1.1,1.2-1.1c0.1,0,0.1,0,0.1,0.1c0,0.1,0,0.1-0.1,0.1v0.9c0.6,0,1-0.5,1-1s-0.5-1-1-1
			c-1.1,0-2.1,0.9-2.1,2.1c0,1.1,0.9,2.1,2.1,2.1c1.7,0,3.1-1.4,3.1-3.1C274.5,316.1,273.1,314.7,271.3,314.7z"/>
		<rect x="255.1" y="316.5" fill="#FFFFFF" width="14" height="1"/>
		<polygon fill="#FFFFFF" points="256.1,319.5 257.1,319.5 257.1,341 258.1,341.3 258.1,319.5 260.1,319.5 260.1,341.5 261.1,341.5 
			261.1,319.5 263.1,319.5 263.1,341.5 264.1,341.5 264.1,319.5 266.1,319.5 266.1,340.5 267.1,340.5 267.1,319.5 268.1,319.5 
			268.1,318.5 255.8,318.5 		"/>
	</g>
</g>
<g>
	<path fill="#9A9A9A" d="M106.3,466.7c0,18.2-14.7,32.9-32.9,32.9s-32.9-14.7-32.9-32.9c0-18.2,14.7-32.9,32.9-32.9
		S106.3,448.5,106.3,466.7z"/>
	<g>
		<path fill-rule="evenodd" clip-rule="evenodd" fill="#FFFFFF" d="M89.1,481.8c0,0.3-0.2,0.5-0.5,0.5h-9.4c-0.2,0-0.5-0.2-0.5-0.5
			v-9.4c0-0.3,0.2-0.5,0.5-0.5h9.4c0.2,0,0.5,0.2,0.5,0.5V481.8z M88.6,470.3h-9.4c-1.1,0-2.1,0.9-2.1,2.1v9.4
			c0,1.1,0.9,2.1,2.1,2.1h9.4c1.1,0,2-0.9,2-2.1v-9.4C90.7,471.2,89.7,470.3,88.6,470.3z"/>
		<path fill-rule="evenodd" clip-rule="evenodd" fill="#FFFFFF" d="M68,461c0,0.3-0.2,0.5-0.5,0.5h-9.4c-0.3,0-0.5-0.2-0.5-0.5v-9.4
			c0-0.3,0.2-0.5,0.5-0.5h9.4c0.3,0,0.5,0.2,0.5,0.5v0.7l-4.8,5.1l-3.1-4.4l-1.3,0.9l4.3,6l4.9-5.3V461z M69.4,450.8
			c-0.3-0.7-1-1.2-1.9-1.2h-9.4c-1.1,0-2.1,0.9-2.1,2.1v9.4c0,1.1,0.9,2.1,2.1,2.1h9.4c1.1,0,2.1-0.9,2.1-2.1V453l3.6-3.9L72,448
			L69.4,450.8z"/>
		<path fill-rule="evenodd" clip-rule="evenodd" fill="#FFFFFF" d="M68,481.8c0,0.3-0.2,0.5-0.5,0.5h-9.4c-0.3,0-0.5-0.2-0.5-0.5
			v-9.4c0-0.3,0.2-0.5,0.5-0.5h9.4c0.3,0,0.5,0.2,0.5,0.5v0.7l-4.8,5.1l-3.1-4.4l-1.3,0.9l4.3,6l4.9-5.3V481.8z M72,468.6l-2.7,2.9
			c-0.3-0.7-1-1.2-1.9-1.2h-9.4c-1.1,0-2.1,0.9-2.1,2.1v9.4c0,1.1,0.9,2.1,2.1,2.1h9.4c1.1,0,2.1-0.9,2.1-2.1v-8.1l3.6-3.9L72,468.6
			z"/>
		<path fill-rule="evenodd" clip-rule="evenodd" fill="#FFFFFF" d="M89.1,461c0,0.3-0.2,0.5-0.5,0.5h-9.4c-0.2,0-0.5-0.2-0.5-0.5
			v-9.4c0-0.3,0.2-0.5,0.5-0.5h9.4c0.2,0,0.5,0.2,0.5,0.5v1.1l-4.4,4.8l-3.2-4.4l-1.3,0.9l4.3,6l4.6-5V461z M94.6,449l-1.2-1.1
			l-2.9,3.1c-0.2-0.9-1-1.5-2-1.5h-9.4c-1.1,0-2.1,0.9-2.1,2.1v9.4c0,1.1,0.9,2.1,2.1,2.1h9.4c1.1,0,2-0.9,2-2.1v-7.7L94.6,449z"/>
	</g>
</g>
<g>
	<path fill="#9A9A9A" d="M192.9,466.7c0,18.2-14.7,32.9-32.9,32.9s-32.9-14.7-32.9-32.9c0-18.2,14.7-32.9,32.9-32.9
		S192.9,448.5,192.9,466.7z"/>
	<g>
		<path fill-rule="evenodd" clip-rule="evenodd" fill="#FFFFFF" d="M175.8,481.8c0,0.3-0.2,0.5-0.5,0.5h-9.4c-0.3,0-0.5-0.2-0.5-0.5
			v-9.4c0-0.3,0.2-0.5,0.5-0.5h9.4c0.3,0,0.5,0.2,0.5,0.5V481.8z M175.3,470.3h-9.4c-1.1,0-2.1,0.9-2.1,2.1v9.4
			c0,1.1,0.9,2.1,2.1,2.1h9.4c1.1,0,2.1-0.9,2.1-2.1v-9.4C177.4,471.2,176.4,470.3,175.3,470.3z"/>
		<path fill-rule="evenodd" clip-rule="evenodd" fill="#FFFFFF" d="M154.7,461c0,0.3-0.2,0.5-0.5,0.5h-9.4c-0.2,0-0.5-0.2-0.5-0.5
			v-9.4c0-0.3,0.2-0.5,0.5-0.5h9.4c0.3,0,0.5,0.2,0.5,0.5v0.7l-4.7,5.1l-3.2-4.4l-1.3,0.9l4.3,6l4.9-5.3V461z M156.1,450.8
			c-0.3-0.7-1.1-1.2-1.9-1.2h-9.4c-1.1,0-2.1,0.9-2.1,2.1v9.4c0,1.1,0.9,2.1,2.1,2.1h9.4c1.1,0,2.1-0.9,2.1-2.1V453l3.6-3.9
			l-1.2-1.1L156.1,450.8z"/>
		<path fill-rule="evenodd" clip-rule="evenodd" fill="#FFFFFF" d="M154.7,481.8c0,0.3-0.2,0.5-0.5,0.5h-9.4c-0.2,0-0.5-0.2-0.5-0.5
			v-9.4c0-0.3,0.2-0.5,0.5-0.5h9.4c0.3,0,0.5,0.2,0.5,0.5v0.7l-4.7,5.1l-3.2-4.4l-1.3,0.9l4.3,6l4.9-5.3V481.8z M158.7,468.6
			l-2.6,2.9c-0.3-0.7-1-1.2-1.9-1.2h-9.4c-1.1,0-2.1,0.9-2.1,2.1v9.4c0,1.1,0.9,2.1,2.1,2.1h9.4c1.1,0,2.1-0.9,2.1-2.1v-8.1l3.6-3.9
			L158.7,468.6z"/>
		<path fill-rule="evenodd" clip-rule="evenodd" fill="#FFFFFF" d="M175.8,461c0,0.3-0.2,0.5-0.5,0.5h-9.4c-0.3,0-0.5-0.2-0.5-0.5
			v-9.4c0-0.3,0.2-0.5,0.5-0.5h9.4c0.3,0,0.5,0.2,0.5,0.5v1.1l-4.4,4.8l-3.2-4.4l-1.3,0.9l4.3,6l4.6-5V461z M181.3,449l-1.2-1.1
			l-2.9,3.1c-0.2-0.9-1-1.5-2-1.5h-9.4c-1.1,0-2.1,0.9-2.1,2.1v9.4c0,1.1,0.9,2.1,2.1,2.1h9.4c1.1,0,2.1-0.9,2.1-2.1v-7.7L181.3,449
			z"/>
	</g>
</g>
<g>
	<path fill="#9A9A9A" d="M279.6,466.7c0,18.2-14.7,32.9-32.9,32.9c-18.2,0-32.9-14.7-32.9-32.9c0-18.2,14.7-32.9,32.9-32.9
		C264.9,433.8,279.6,448.5,279.6,466.7z"/>
	<g>
		<path fill-rule="evenodd" clip-rule="evenodd" fill="#FFFFFF" d="M262.5,481.8c0,0.3-0.2,0.5-0.5,0.5h-9.4c-0.2,0-0.5-0.2-0.5-0.5
			v-9.4c0-0.3,0.2-0.5,0.5-0.5h9.4c0.3,0,0.5,0.2,0.5,0.5V481.8z M262,470.3h-9.4c-1.1,0-2,0.9-2,2.1v9.4c0,1.1,0.9,2.1,2,2.1h9.4
			c1.1,0,2-0.9,2-2.1v-9.4C264.1,471.2,263.1,470.3,262,470.3z"/>
		<path fill-rule="evenodd" clip-rule="evenodd" fill="#FFFFFF" d="M241.4,461c0,0.3-0.2,0.5-0.5,0.5h-9.4c-0.3,0-0.5-0.2-0.5-0.5
			v-9.4c0-0.3,0.2-0.5,0.5-0.5h9.4c0.2,0,0.5,0.2,0.5,0.5v0.7l-4.7,5.1l-3.2-4.4l-1.3,0.9l4.3,6l4.9-5.3V461z M242.8,450.8
			c-0.3-0.7-1-1.2-1.9-1.2h-9.4c-1.1,0-2,0.9-2,2.1v9.4c0,1.1,0.9,2.1,2,2.1h9.4c1.1,0,2.1-0.9,2.1-2.1V453l3.6-3.9l-1.2-1.1
			L242.8,450.8z"/>
		<path fill-rule="evenodd" clip-rule="evenodd" fill="#FFFFFF" d="M241.4,481.8c0,0.3-0.2,0.5-0.5,0.5h-9.4c-0.3,0-0.5-0.2-0.5-0.5
			v-9.4c0-0.3,0.2-0.5,0.5-0.5h9.4c0.2,0,0.5,0.2,0.5,0.5v0.7l-4.7,5.1l-3.2-4.4l-1.3,0.9l4.3,6l4.9-5.3V481.8z M245.4,468.6
			l-2.6,2.9c-0.3-0.7-1-1.2-1.9-1.2h-9.4c-1.1,0-2,0.9-2,2.1v9.4c0,1.1,0.9,2.1,2,2.1h9.4c1.1,0,2.1-0.9,2.1-2.1v-8.1l3.6-3.9
			L245.4,468.6z"/>
		<path fill-rule="evenodd" clip-rule="evenodd" fill="#FFFFFF" d="M262.5,461c0,0.3-0.2,0.5-0.5,0.5h-9.4c-0.2,0-0.5-0.2-0.5-0.5
			v-9.4c0-0.3,0.2-0.5,0.5-0.5h9.4c0.3,0,0.5,0.2,0.5,0.5v1.1l-4.4,4.8l-3.1-4.4l-1.3,0.9l4.3,6l4.6-5V461z M268,449l-1.2-1.1
			l-2.9,3.1c-0.2-0.9-1-1.5-2-1.5h-9.4c-1.1,0-2,0.9-2,2.1v9.4c0,1.1,0.9,2.1,2,2.1h9.4c1.1,0,2-0.9,2-2.1v-7.7L268,449z"/>
	</g>
</g>
<g>
	<path fill="#9A9A9A" d="M106.3,550.5c0,18.2-14.7,32.9-32.9,32.9s-32.9-14.7-32.9-32.9s14.7-32.9,32.9-32.9
		S106.3,532.3,106.3,550.5z"/>
	<g>
		<path fill-rule="evenodd" clip-rule="evenodd" fill="#FFFFFF" d="M89.1,565.5c0,0.3-0.2,0.5-0.5,0.5h-9.4c-0.2,0-0.5-0.2-0.5-0.5
			v-9.4c0-0.3,0.2-0.5,0.5-0.5h9.4c0.2,0,0.5,0.2,0.5,0.5V565.5z M88.6,554h-9.4c-1.1,0-2.1,0.9-2.1,2.1v9.4c0,1.1,0.9,2.1,2.1,2.1
			h9.4c1.1,0,2-0.9,2-2.1v-9.4C90.7,555,89.7,554,88.6,554z"/>
		<path fill-rule="evenodd" clip-rule="evenodd" fill="#FFFFFF" d="M68,544.8c0,0.2-0.2,0.5-0.5,0.5h-9.4c-0.3,0-0.5-0.2-0.5-0.5
			v-9.4c0-0.3,0.2-0.5,0.5-0.5h9.4c0.3,0,0.5,0.2,0.5,0.5v0.7l-4.8,5.2l-3.1-4.4l-1.3,0.9l4.3,6.1l4.9-5.3V544.8z M69.4,534.6
			c-0.3-0.7-1-1.2-1.9-1.2h-9.4c-1.1,0-2.1,0.9-2.1,2v9.4c0,1.1,0.9,2,2.1,2h9.4c1.1,0,2.1-0.9,2.1-2v-8.1l3.6-3.9l-1.2-1.1
			L69.4,534.6z"/>
		<path fill-rule="evenodd" clip-rule="evenodd" fill="#FFFFFF" d="M68,565.5c0,0.3-0.2,0.5-0.5,0.5h-9.4c-0.3,0-0.5-0.2-0.5-0.5
			v-9.4c0-0.3,0.2-0.5,0.5-0.5h9.4c0.3,0,0.5,0.2,0.5,0.5v0.7l-4.8,5.1l-3.1-4.4l-1.3,0.9l4.3,6l4.9-5.3V565.5z M72,552.4l-2.7,2.9
			c-0.3-0.7-1-1.2-1.9-1.2h-9.4c-1.1,0-2.1,0.9-2.1,2.1v9.4c0,1.1,0.9,2.1,2.1,2.1h9.4c1.1,0,2.1-0.9,2.1-2.1v-8.2l3.6-3.9L72,552.4
			z"/>
		<path fill-rule="evenodd" clip-rule="evenodd" fill="#FFFFFF" d="M89.1,544.8c0,0.2-0.2,0.5-0.5,0.5h-9.4c-0.2,0-0.5-0.2-0.5-0.5
			v-9.4c0-0.3,0.2-0.5,0.5-0.5h9.4c0.2,0,0.5,0.2,0.5,0.5v1.1l-4.4,4.8l-3.2-4.4l-1.3,0.9l4.3,6.1l4.6-5V544.8z M94.6,532.8
			l-1.2-1.1l-2.9,3.1c-0.2-0.9-1-1.5-2-1.5h-9.4c-1.1,0-2.1,0.9-2.1,2v9.4c0,1.1,0.9,2,2.1,2h9.4c1.1,0,2-0.9,2-2v-7.7L94.6,532.8z"
			/>
	</g>
</g>
<path fill="#EDEDED" d="M244.4,601.6H232c-16.6,0-30.1-13.5-30.1-30.1v-21c0-23.1-18.8-41.9-41.9-41.9s-41.9,18.8-41.9,41.9v21
	c0,16.6-13.4,30.1-30,30.1H75.7c-16.6,0-30.1,13.5-30.1,30v59c0,16.6,13.5,30,30.1,30h168.7c16.6,0,30.1-13.5,30.1-30v-59
	C274.5,615,261,601.6,244.4,601.6z"/>
<g>
	<path fill="#42A1DF" d="M192.9,550.5c0,18.2-14.7,32.9-32.9,32.9s-32.9-14.7-32.9-32.9s14.7-32.9,32.9-32.9
		S192.9,532.3,192.9,550.5z"/>
	<g>
		<path fill-rule="evenodd" clip-rule="evenodd" fill="#FFFFFF" d="M175.8,565.5c0,0.3-0.2,0.5-0.5,0.5h-9.4c-0.3,0-0.5-0.2-0.5-0.5
			v-9.4c0-0.3,0.2-0.5,0.5-0.5h9.4c0.3,0,0.5,0.2,0.5,0.5V565.5z M175.3,554h-9.4c-1.1,0-2.1,0.9-2.1,2.1v9.4c0,1.1,0.9,2.1,2.1,2.1
			h9.4c1.1,0,2.1-0.9,2.1-2.1v-9.4C177.4,555,176.4,554,175.3,554z"/>
		<path fill-rule="evenodd" clip-rule="evenodd" fill="#FFFFFF" d="M154.7,544.8c0,0.2-0.2,0.5-0.5,0.5h-9.4c-0.2,0-0.5-0.2-0.5-0.5
			v-9.4c0-0.3,0.2-0.5,0.5-0.5h9.4c0.3,0,0.5,0.2,0.5,0.5v0.7l-4.7,5.2l-3.2-4.4l-1.3,0.9l4.3,6.1l4.9-5.3V544.8z M156.1,534.6
			c-0.3-0.7-1.1-1.2-1.9-1.2h-9.4c-1.1,0-2.1,0.9-2.1,2v9.4c0,1.1,0.9,2,2.1,2h9.4c1.1,0,2.1-0.9,2.1-2v-8.1l3.6-3.9l-1.2-1.1
			L156.1,534.6z"/>
		<path fill-rule="evenodd" clip-rule="evenodd" fill="#FFFFFF" d="M154.7,565.5c0,0.3-0.2,0.5-0.5,0.5h-9.4c-0.2,0-0.5-0.2-0.5-0.5
			v-9.4c0-0.3,0.2-0.5,0.5-0.5h9.4c0.3,0,0.5,0.2,0.5,0.5v0.7l-4.7,5.1l-3.2-4.4l-1.3,0.9l4.3,6l4.9-5.3V565.5z M158.7,552.4
			l-2.6,2.9c-0.3-0.7-1-1.2-1.9-1.2h-9.4c-1.1,0-2.1,0.9-2.1,2.1v9.4c0,1.1,0.9,2.1,2.1,2.1h9.4c1.1,0,2.1-0.9,2.1-2.1v-8.2l3.6-3.9
			L158.7,552.4z"/>
		<path fill-rule="evenodd" clip-rule="evenodd" fill="#FFFFFF" d="M175.8,544.8c0,0.2-0.2,0.5-0.5,0.5h-9.4c-0.3,0-0.5-0.2-0.5-0.5
			v-9.4c0-0.3,0.2-0.5,0.5-0.5h9.4c0.3,0,0.5,0.2,0.5,0.5v1.1l-4.4,4.8l-3.2-4.4l-1.3,0.9l4.3,6.1l4.6-5V544.8z M181.3,532.8
			l-1.2-1.1l-2.9,3.1c-0.2-0.9-1-1.5-2-1.5h-9.4c-1.1,0-2.1,0.9-2.1,2v9.4c0,1.1,0.9,2,2.1,2h9.4c1.1,0,2.1-0.9,2.1-2v-7.7
			L181.3,532.8z"/>
	</g>
</g>
<g>
	<g>
		<path fill="#9A9A9A" d="M97.4,632.2c0,10.9-8.8,19.7-19.7,19.7c-10.9,0-19.7-8.8-19.7-19.7s8.8-19.7,19.7-19.7
			C88.6,612.5,97.4,621.3,97.4,632.2z"/>
		<g>
			<path fill="#FFFFFF" d="M86,623.8c-2.2-2.2-5.2-3.4-8.3-3.4h-0.1c-3.2,0-6.1,1.3-8.3,3.5c-2.2,2.2-3.4,5.2-3.4,8.4
				c0,2.1,0.6,4.2,1.7,6l0.2,0.4l0.8-0.5l-0.1-0.2l1.8-1l-0.5-0.8l-1.8,1c-0.8-1.5-1.2-3.2-1.2-4.9c0-1.8,0.4-3.5,1.2-5l1.8,1
				l0.5-0.8l-1.8-1c0.4-0.6,0.9-1.3,1.4-1.8c1.9-2,4.5-3.1,7.2-3.2v2h1v-2c2.7,0.1,5.3,1.2,7.2,3.1c0.6,0.6,1.1,1.2,1.5,1.9l-1.8,1
				l0.5,0.8l1.8-1c0.8,1.5,1.2,3.2,1.2,5c0,1.8-0.4,3.5-1.2,5.1l-1.7-1l-0.5,0.8l1.7,1l-0.1,0.1l0.8,0.5l0.2-0.4
				c1.1-1.8,1.7-4,1.7-6.1C89.5,628.9,88.3,626,86,623.8z"/>
			<path fill-rule="evenodd" clip-rule="evenodd" fill="#FFFFFF" d="M77.7,634.1L77.7,634.1c-1.1,0-1.9-0.9-1.9-1.9s0.8-1.9,1.9-1.9
				c1,0,1.9,0.8,1.9,1.9C79.6,633.2,78.8,634.1,77.7,634.1z M78.9,629.6l-1.2-5.4l-1.4,5.6c-0.9,0.5-1.4,1.4-1.4,2.5
				c0,1.6,1.3,2.9,2.9,2.9h0c1.6,0,2.9-1.3,2.9-2.9C80.6,631,79.9,630,78.9,629.6z"/>
		</g>
	</g>
	<g>
		<path fill="#FFFFFF" d="M80.9,645.8h-5.3v-1.5h1.7v-5.2l-1.8,0.4V638l3.6-0.7v7.1h1.7V645.8z"/>
	</g>
</g>
<g>
	<g>
		<path fill="#9A9A9A" d="M152.3,632.2c0,10.9-8.8,19.7-19.7,19.7c-10.9,0-19.7-8.8-19.7-19.7s8.8-19.7,19.7-19.7
			C143.5,612.5,152.3,621.3,152.3,632.2z"/>
		<g>
			<path fill="#FFFFFF" d="M140.9,623.8c-2.2-2.2-5.2-3.4-8.3-3.4h-0.1c-3.2,0-6.1,1.3-8.3,3.5c-2.2,2.2-3.4,5.2-3.4,8.4
				c0,2.1,0.6,4.2,1.7,6l0.2,0.4l0.8-0.5l-0.1-0.2l1.8-1l-0.5-0.8l-1.8,1c-0.8-1.5-1.2-3.2-1.2-4.9c0-1.8,0.4-3.5,1.2-5l1.8,1
				l0.5-0.8l-1.8-1c0.4-0.6,0.9-1.3,1.4-1.8c1.9-2,4.5-3.1,7.2-3.2v2h0.9v-2c2.7,0.1,5.3,1.2,7.2,3.1c0.6,0.6,1.1,1.2,1.5,1.9
				l-1.8,1l0.5,0.8l1.8-1c0.8,1.5,1.2,3.2,1.2,5c0,1.8-0.4,3.5-1.2,5.1l-1.7-1l-0.5,0.8l1.7,1l-0.1,0.1l0.8,0.5l0.2-0.4
				c1.1-1.8,1.7-4,1.7-6.1C144.4,628.9,143.1,626,140.9,623.8z"/>
			<path fill-rule="evenodd" clip-rule="evenodd" fill="#FFFFFF" d="M132.6,634.1L132.6,634.1c-1.1,0-1.9-0.9-1.9-1.9
				c0-1,0.8-1.9,1.9-1.9c1.1,0,1.9,0.8,1.9,1.9C134.5,633.2,133.7,634.1,132.6,634.1z M133.8,629.6l-1.2-5.4l-1.4,5.6
				c-0.9,0.5-1.4,1.4-1.4,2.5c0,1.6,1.3,2.9,2.9,2.9h0c1.6,0,2.9-1.3,2.9-2.9C135.5,631,134.8,630,133.8,629.6z"/>
		</g>
	</g>
	<g>
		<path fill="#FFFFFF" d="M135.8,645.8h-5.5v-1.4l2.4-2.3c0.5-0.5,0.9-0.9,1-1.2c0.2-0.3,0.3-0.6,0.3-1c0-0.8-0.4-1.2-1.2-1.2
			c-0.7,0-1.4,0.3-2.1,0.9v-1.6c0.7-0.5,1.6-0.7,2.5-0.7c0.9,0,1.6,0.2,2.1,0.7c0.4,0.4,0.7,1,0.7,1.7c0,1-0.6,2-1.8,3l-1.7,1.5v0
			h3.4V645.8z"/>
	</g>
</g>
<g>
	<g>
		<path fill="#42A1DF" d="M207.2,632.2c0,10.9-8.8,19.7-19.7,19.7c-10.9,0-19.7-8.8-19.7-19.7s8.8-19.7,19.7-19.7
			C198.4,612.5,207.2,621.3,207.2,632.2z"/>
		<g>
			<path fill="#FFFFFF" d="M195.8,623.8c-2.2-2.2-5.2-3.4-8.3-3.4h-0.1c-3.2,0-6.1,1.3-8.3,3.5c-2.2,2.2-3.4,5.2-3.4,8.4
				c0,2.1,0.6,4.2,1.7,6l0.2,0.4l0.8-0.5l-0.1-0.2l1.8-1l-0.5-0.8l-1.8,1c-0.8-1.5-1.2-3.2-1.2-4.9c0-1.8,0.4-3.5,1.2-5l1.8,1
				l0.5-0.8l-1.8-1c0.4-0.6,0.9-1.3,1.4-1.8c1.9-2,4.5-3.1,7.2-3.2v2h0.9v-2c2.7,0.1,5.3,1.2,7.2,3.1c0.6,0.6,1.1,1.2,1.5,1.9
				l-1.8,1l0.5,0.8l1.8-1c0.8,1.5,1.2,3.2,1.2,5c0,1.8-0.4,3.5-1.2,5.1l-1.7-1l-0.5,0.8l1.7,1l-0.1,0.1l0.8,0.5l0.2-0.4
				c1.1-1.8,1.7-4,1.7-6.1C199.3,628.9,198,626,195.8,623.8z"/>
			<path fill-rule="evenodd" clip-rule="evenodd" fill="#FFFFFF" d="M187.5,634.1L187.5,634.1c-1.1,0-1.9-0.9-1.9-1.9
				c0-1,0.8-1.9,1.9-1.9c1.1,0,1.9,0.8,1.9,1.9C189.4,633.2,188.6,634.1,187.5,634.1z M188.7,629.6l-1.2-5.4l-1.4,5.6
				c-0.9,0.5-1.4,1.4-1.4,2.5c0,1.6,1.3,2.9,2.9,2.9h0c1.6,0,2.9-1.3,2.9-2.9C190.4,631,189.7,630,188.7,629.6z"/>
		</g>
	</g>
	<g>
		<path fill="#FFFFFF" d="M190.8,643.4c0,0.8-0.3,1.4-0.8,1.8c-0.6,0.5-1.4,0.7-2.4,0.7c-0.9,0-1.6-0.1-2.1-0.4v-1.6
			c0.6,0.4,1.2,0.6,2,0.6c0.5,0,0.9-0.1,1.1-0.3s0.4-0.5,0.4-0.8c0-0.4-0.2-0.7-0.5-0.9c-0.3-0.2-0.8-0.3-1.3-0.3h-0.8v-1.4h0.7
			c1.1,0,1.6-0.4,1.6-1.1c0-0.7-0.4-1-1.3-1c-0.6,0-1.1,0.2-1.6,0.5v-1.5c0.6-0.3,1.3-0.4,2.1-0.4c0.9,0,1.6,0.2,2.1,0.7
			c0.4,0.4,0.6,0.9,0.6,1.4c0,1.1-0.6,1.8-1.7,2.1v0c0.6,0.1,1.1,0.3,1.4,0.7C190.7,642.4,190.8,642.9,190.8,643.4z"/>
	</g>
</g>
<g>
	<g>
		<path fill="#9A9A9A" d="M262.1,632.2c0,10.9-8.8,19.7-19.7,19.7c-10.9,0-19.7-8.8-19.7-19.7s8.8-19.7,19.7-19.7
			C253.2,612.5,262.1,621.3,262.1,632.2z"/>
		<g>
			<path fill="#FFFFFF" d="M250.7,623.8c-2.2-2.2-5.2-3.4-8.3-3.4h-0.1c-3.2,0-6.1,1.3-8.3,3.5c-2.2,2.2-3.4,5.2-3.4,8.4
				c0,2.1,0.6,4.2,1.7,6l0.2,0.4l0.8-0.5l-0.1-0.2l1.8-1l-0.5-0.8l-1.8,1c-0.8-1.5-1.2-3.2-1.2-4.9c0-1.8,0.4-3.5,1.2-5l1.8,1
				l0.5-0.8l-1.8-1c0.4-0.6,0.9-1.3,1.4-1.8c1.9-2,4.5-3.1,7.2-3.2v2h0.9v-2c2.7,0.1,5.3,1.2,7.2,3.1c0.6,0.6,1.1,1.2,1.5,1.9
				l-1.8,1l0.5,0.8l1.8-1c0.8,1.5,1.2,3.2,1.2,5c0,1.8-0.4,3.5-1.2,5.1l-1.7-1l-0.5,0.8l1.7,1l-0.1,0.1l0.8,0.5l0.2-0.4
				c1.1-1.8,1.7-4,1.7-6.1C254.2,628.9,252.9,626,250.7,623.8z"/>
			<path fill-rule="evenodd" clip-rule="evenodd" fill="#FFFFFF" d="M242.4,634.1L242.4,634.1c-1.1,0-1.9-0.9-1.9-1.9
				c0-1,0.8-1.9,1.9-1.9c1,0,1.9,0.8,1.9,1.9C244.3,633.2,243.5,634.1,242.4,634.1z M243.6,629.6l-1.2-5.4l-1.4,5.6
				c-0.9,0.5-1.4,1.4-1.4,2.5c0,1.6,1.3,2.9,2.9,2.9h0c1.6,0,2.9-1.3,2.9-2.9C245.3,631,244.6,630,243.6,629.6z"/>
		</g>
	</g>
	<g>
		<path fill="#FFFFFF" d="M245.2,644h-1v1.8h-1.7V644h-3.7v-1.2l3.5-5.4h1.8v5.3h1V644z M242.5,642.7V640c0-0.2,0-0.5,0-0.8h0
			c-0.1,0.1-0.2,0.4-0.3,0.7l-1.8,2.8H242.5z"/>
	</g>
</g>
<g>
	<g>
		<path fill="#9A9A9A" d="M97.4,688.3c0,10.9-8.8,19.7-19.7,19.7c-10.9,0-19.7-8.8-19.7-19.7c0-10.9,8.8-19.7,19.7-19.7
			C88.6,668.6,97.4,677.4,97.4,688.3z"/>
		<g>
			<path fill="#FFFFFF" d="M86,679.9c-2.2-2.2-5.2-3.4-8.3-3.4h-0.1c-3.2,0-6.1,1.3-8.3,3.5c-2.2,2.2-3.4,5.2-3.4,8.4
				c0,2.1,0.6,4.2,1.7,6l0.2,0.4l0.8-0.5l-0.1-0.2l1.8-1l-0.5-0.8l-1.8,1c-0.8-1.5-1.2-3.2-1.2-4.9c0-1.8,0.4-3.5,1.2-5l1.8,1
				l0.5-0.8l-1.8-1c0.4-0.6,0.9-1.3,1.4-1.8c1.9-2,4.5-3.1,7.2-3.2v2h1v-2c2.7,0.1,5.3,1.2,7.2,3.1c0.6,0.6,1.1,1.2,1.5,1.9l-1.8,1
				l0.5,0.8l1.8-1c0.8,1.5,1.2,3.2,1.2,5c0,1.8-0.4,3.6-1.2,5.1l-1.7-1l-0.5,0.8l1.7,1l-0.1,0.1l0.8,0.5l0.2-0.4
				c1.1-1.9,1.7-4,1.7-6.1C89.5,685.1,88.3,682.1,86,679.9z"/>
			<path fill-rule="evenodd" clip-rule="evenodd" fill="#FFFFFF" d="M77.7,690.2L77.7,690.2c-1.1,0-1.9-0.8-1.9-1.9s0.8-1.9,1.9-1.9
				c1,0,1.9,0.8,1.9,1.9C79.6,689.3,78.8,690.2,77.7,690.2z M78.9,685.7l-1.2-5.4l-1.4,5.5c-0.9,0.5-1.4,1.4-1.4,2.5
				c0,1.6,1.3,2.9,2.9,2.9h0c1.6,0,2.9-1.3,2.9-2.9C80.6,687.1,79.9,686.1,78.9,685.7z"/>
		</g>
	</g>
	<g>
		<path fill="#FFFFFF" d="M80.9,699c0,0.8-0.3,1.5-0.8,2c-0.6,0.6-1.4,0.9-2.4,0.9c-0.8,0-1.5-0.1-2-0.4V700
			c0.6,0.4,1.2,0.5,1.8,0.5c0.5,0,0.9-0.1,1.2-0.4c0.3-0.2,0.4-0.5,0.4-0.9c0-0.8-0.6-1.2-1.8-1.2c-0.4,0-0.8,0-1.4,0.1v-4.7h4.7
			v1.5h-3.1v1.7c0.3,0,0.5,0,0.7,0c0.9,0,1.6,0.2,2.1,0.7C80.6,697.7,80.9,698.3,80.9,699z"/>
	</g>
</g>
<g>
	<g>
		<path fill="#9A9A9A" d="M152.3,688.3c0,10.9-8.8,19.7-19.7,19.7c-10.9,0-19.7-8.8-19.7-19.7c0-10.9,8.8-19.7,19.7-19.7
			C143.5,668.6,152.3,677.4,152.3,688.3z"/>
		<g>
			<path fill="#FFFFFF" d="M140.9,679.9c-2.2-2.2-5.2-3.4-8.3-3.4h-0.1c-3.2,0-6.1,1.3-8.3,3.5c-2.2,2.2-3.4,5.2-3.4,8.4
				c0,2.1,0.6,4.2,1.7,6l0.2,0.4l0.8-0.5l-0.1-0.2l1.8-1l-0.5-0.8l-1.8,1c-0.8-1.5-1.2-3.2-1.2-4.9c0-1.8,0.4-3.5,1.2-5l1.8,1
				l0.5-0.8l-1.8-1c0.4-0.6,0.9-1.3,1.4-1.8c1.9-2,4.5-3.1,7.2-3.2v2h0.9v-2c2.7,0.1,5.3,1.2,7.2,3.1c0.6,0.6,1.1,1.2,1.5,1.9
				l-1.8,1l0.5,0.8l1.8-1c0.8,1.5,1.2,3.2,1.2,5c0,1.8-0.4,3.6-1.2,5.1l-1.7-1l-0.5,0.8l1.7,1l-0.1,0.1l0.8,0.5l0.2-0.4
				c1.1-1.9,1.7-4,1.7-6.1C144.4,685.1,143.1,682.1,140.9,679.9z"/>
			<path fill-rule="evenodd" clip-rule="evenodd" fill="#FFFFFF" d="M132.6,690.2L132.6,690.2c-1.1,0-1.9-0.8-1.9-1.9
				c0-1,0.8-1.9,1.9-1.9c1.1,0,1.9,0.8,1.9,1.9C134.5,689.3,133.7,690.2,132.6,690.2z M133.8,685.7l-1.2-5.4l-1.4,5.5
				c-0.9,0.5-1.4,1.4-1.4,2.5c0,1.6,1.3,2.9,2.9,2.9h0c1.6,0,2.9-1.3,2.9-2.9C135.5,687.1,134.8,686.1,133.8,685.7z"/>
		</g>
	</g>
	<g>
		<path fill="#FFFFFF" d="M136.1,699c0,0.8-0.3,1.5-0.8,2.1s-1.2,0.8-2.1,0.8c-0.9,0-1.6-0.3-2.2-1c-0.6-0.7-0.8-1.7-0.8-2.9
			c0-1.4,0.3-2.6,1-3.4c0.7-0.9,1.6-1.3,2.8-1.3c0.6,0,1.2,0.1,1.5,0.2v1.5c-0.4-0.2-0.9-0.4-1.4-0.4c-0.6,0-1.1,0.2-1.5,0.7
			s-0.6,1.1-0.6,1.9h0c0.4-0.6,1-0.9,1.8-0.9c0.7,0,1.3,0.2,1.7,0.7C135.9,697.6,136.1,698.2,136.1,699z M134.3,699.1
			c0-0.9-0.4-1.4-1.1-1.4c-0.3,0-0.6,0.1-0.8,0.4c-0.2,0.2-0.3,0.5-0.3,0.9c0,0.4,0.1,0.7,0.3,1c0.2,0.3,0.5,0.5,0.8,0.5
			c0.3,0,0.6-0.1,0.8-0.4C134.2,699.8,134.3,699.5,134.3,699.1z"/>
	</g>
</g>
<g>
	<g>
		<path fill="#9A9A9A" d="M207.2,688.3c0,10.9-8.8,19.7-19.7,19.7c-10.9,0-19.7-8.8-19.7-19.7c0-10.9,8.8-19.7,19.7-19.7
			C198.4,668.6,207.2,677.4,207.2,688.3z"/>
		<g>
			<path fill="#FFFFFF" d="M195.8,679.9c-2.2-2.2-5.2-3.4-8.3-3.4h-0.1c-3.2,0-6.1,1.3-8.3,3.5c-2.2,2.2-3.4,5.2-3.4,8.4
				c0,2.1,0.6,4.2,1.7,6l0.2,0.4l0.8-0.5l-0.1-0.2l1.8-1l-0.5-0.8l-1.8,1c-0.8-1.5-1.2-3.2-1.2-4.9c0-1.8,0.4-3.5,1.2-5l1.8,1
				l0.5-0.8l-1.8-1c0.4-0.6,0.9-1.3,1.4-1.8c1.9-2,4.5-3.1,7.2-3.2v2h0.9v-2c2.7,0.1,5.3,1.2,7.2,3.1c0.6,0.6,1.1,1.2,1.5,1.9
				l-1.8,1l0.5,0.8l1.8-1c0.8,1.5,1.2,3.2,1.2,5c0,1.8-0.4,3.6-1.2,5.1l-1.7-1l-0.5,0.8l1.7,1l-0.1,0.1l0.8,0.5l0.2-0.4
				c1.1-1.9,1.7-4,1.7-6.1C199.3,685.1,198,682.1,195.8,679.9z"/>
			<path fill-rule="evenodd" clip-rule="evenodd" fill="#FFFFFF" d="M187.5,690.2L187.5,690.2c-1.1,0-1.9-0.8-1.9-1.9
				c0-1,0.8-1.9,1.9-1.9c1.1,0,1.9,0.8,1.9,1.9C189.4,689.3,188.6,690.2,187.5,690.2z M188.7,685.7l-1.2-5.4l-1.4,5.5
				c-0.9,0.5-1.4,1.4-1.4,2.5c0,1.6,1.3,2.9,2.9,2.9h0c1.6,0,2.9-1.3,2.9-2.9C190.4,687.1,189.7,686.1,188.7,685.7z"/>
		</g>
	</g>
	<g>
		<path fill="#FFFFFF" d="M190,694.2l-3,7.5h-2l3-6.9h-3.9v-1.5h5.8V694.2z"/>
	</g>
</g>
<g>
	<g>
		<path fill="#9A9A9A" d="M262.1,688.3c0,10.9-8.8,19.7-19.7,19.7c-10.9,0-19.7-8.8-19.7-19.7c0-10.9,8.8-19.7,19.7-19.7
			C253.2,668.6,262.1,677.4,262.1,688.3z"/>
		<g>
			<path fill="#FFFFFF" d="M250.7,679.9c-2.2-2.2-5.2-3.4-8.3-3.4h-0.1c-3.2,0-6.1,1.3-8.3,3.5c-2.2,2.2-3.4,5.2-3.4,8.4
				c0,2.1,0.6,4.2,1.7,6l0.2,0.4l0.8-0.5l-0.1-0.2l1.8-1l-0.5-0.8l-1.8,1c-0.8-1.5-1.2-3.2-1.2-4.9c0-1.8,0.4-3.5,1.2-5l1.8,1
				l0.5-0.8l-1.8-1c0.4-0.6,0.9-1.3,1.4-1.8c1.9-2,4.5-3.1,7.2-3.2v2h0.9v-2c2.7,0.1,5.3,1.2,7.2,3.1c0.6,0.6,1.1,1.2,1.5,1.9
				l-1.8,1l0.5,0.8l1.8-1c0.8,1.5,1.2,3.2,1.2,5c0,1.8-0.4,3.6-1.2,5.1l-1.7-1l-0.5,0.8l1.7,1l-0.1,0.1l0.8,0.5l0.2-0.4
				c1.1-1.9,1.7-4,1.7-6.1C254.2,685.1,252.9,682.1,250.7,679.9z"/>
			<path fill-rule="evenodd" clip-rule="evenodd" fill="#FFFFFF" d="M242.4,690.2L242.4,690.2c-1.1,0-1.9-0.8-1.9-1.9
				c0-1,0.8-1.9,1.9-1.9c1,0,1.9,0.8,1.9,1.9C244.3,689.3,243.5,690.2,242.4,690.2z M243.6,685.7l-1.2-5.4l-1.4,5.5
				c-0.9,0.5-1.4,1.4-1.4,2.5c0,1.6,1.3,2.9,2.9,2.9h0c1.6,0,2.9-1.3,2.9-2.9C245.3,687.1,244.6,686.1,243.6,685.7z"/>
		</g>
	</g>
	<g>
		<path fill="#FFFFFF" d="M245.1,699.5c0,0.7-0.3,1.3-0.8,1.7c-0.6,0.5-1.3,0.7-2.3,0.7c-0.8,0-1.5-0.2-2.1-0.6s-0.8-1-0.8-1.7
			c0-1,0.6-1.7,1.7-2.2v0c-1-0.4-1.4-1-1.4-1.9c0-0.6,0.3-1.2,0.8-1.6s1.2-0.6,2-0.6c0.9,0,1.5,0.2,2,0.6c0.5,0.4,0.7,0.9,0.7,1.5
			c0,0.9-0.5,1.6-1.6,2v0c0.6,0.2,1.1,0.5,1.4,0.9C244.9,698.7,245.1,699.1,245.1,699.5z M243.3,699.5c0-0.6-0.4-1.1-1.3-1.4
			c-0.8,0.3-1.2,0.8-1.2,1.4c0,0.3,0.1,0.6,0.4,0.8c0.2,0.2,0.5,0.3,0.9,0.3c0.4,0,0.7-0.1,0.9-0.3S243.3,699.8,243.3,699.5z
			 M243.1,695.5c0-0.3-0.1-0.5-0.3-0.7s-0.4-0.3-0.7-0.3c-0.3,0-0.5,0.1-0.7,0.3c-0.2,0.2-0.3,0.4-0.3,0.7c0,0.5,0.3,0.9,1,1.2
			C242.8,696.4,243.1,696,243.1,695.5z"/>
	</g>
</g>
<g>
	<path fill="#9A9A9A" d="M279.6,550.5c0,18.2-14.7,32.9-32.9,32.9c-18.2,0-32.9-14.7-32.9-32.9s14.7-32.9,32.9-32.9
		C264.9,517.6,279.6,532.3,279.6,550.5z"/>
	<g>
		<path fill-rule="evenodd" clip-rule="evenodd" fill="#FFFFFF" d="M262.5,565.5c0,0.3-0.2,0.5-0.5,0.5h-9.4c-0.2,0-0.5-0.2-0.5-0.5
			v-9.4c0-0.3,0.2-0.5,0.5-0.5h9.4c0.3,0,0.5,0.2,0.5,0.5V565.5z M262,554h-9.4c-1.1,0-2,0.9-2,2.1v9.4c0,1.1,0.9,2.1,2,2.1h9.4
			c1.1,0,2-0.9,2-2.1v-9.4C264.1,555,263.1,554,262,554z"/>
		<path fill-rule="evenodd" clip-rule="evenodd" fill="#FFFFFF" d="M241.4,544.8c0,0.2-0.2,0.5-0.5,0.5h-9.4c-0.3,0-0.5-0.2-0.5-0.5
			v-9.4c0-0.3,0.2-0.5,0.5-0.5h9.4c0.2,0,0.5,0.2,0.5,0.5v0.7l-4.7,5.2l-3.2-4.4l-1.3,0.9l4.3,6.1l4.9-5.3V544.8z M242.8,534.6
			c-0.3-0.7-1-1.2-1.9-1.2h-9.4c-1.1,0-2,0.9-2,2v9.4c0,1.1,0.9,2,2,2h9.4c1.1,0,2.1-0.9,2.1-2v-8.1l3.6-3.9l-1.2-1.1L242.8,534.6z"
			/>
		<path fill-rule="evenodd" clip-rule="evenodd" fill="#FFFFFF" d="M241.4,565.5c0,0.3-0.2,0.5-0.5,0.5h-9.4c-0.3,0-0.5-0.2-0.5-0.5
			v-9.4c0-0.3,0.2-0.5,0.5-0.5h9.4c0.2,0,0.5,0.2,0.5,0.5v0.7l-4.7,5.1l-3.2-4.4l-1.3,0.9l4.3,6l4.9-5.3V565.5z M245.4,552.4
			l-2.6,2.9c-0.3-0.7-1-1.2-1.9-1.2h-9.4c-1.1,0-2,0.9-2,2.1v9.4c0,1.1,0.9,2.1,2,2.1h9.4c1.1,0,2.1-0.9,2.1-2.1v-8.2l3.6-3.9
			L245.4,552.4z"/>
		<path fill-rule="evenodd" clip-rule="evenodd" fill="#FFFFFF" d="M262.5,544.8c0,0.2-0.2,0.5-0.5,0.5h-9.4c-0.2,0-0.5-0.2-0.5-0.5
			v-9.4c0-0.3,0.2-0.5,0.5-0.5h9.4c0.3,0,0.5,0.2,0.5,0.5v1.1l-4.4,4.8l-3.1-4.4l-1.3,0.9l4.3,6.1l4.6-5V544.8z M268,532.8l-1.2-1.1
			l-2.9,3.1c-0.2-0.9-1-1.5-2-1.5h-9.4c-1.1,0-2,0.9-2,2v9.4c0,1.1,0.9,2,2,2h9.4c1.1,0,2-0.9,2-2v-7.7L268,532.8z"/>
	</g>
</g>
<g>
	<g>
		<path fill="#9A9A9A" d="M97.4,750.3c0,10.9-8.8,19.7-19.7,19.7c-10.9,0-19.7-8.8-19.7-19.7c0-10.9,8.8-19.7,19.7-19.7
			C88.6,730.6,97.4,739.4,97.4,750.3z"/>
		<g>
			<path fill="#FFFFFF" d="M86,741.9c-2.2-2.2-5.2-3.4-8.3-3.4h-0.1c-3.2,0-6.1,1.3-8.3,3.5c-2.2,2.2-3.4,5.2-3.4,8.4
				c0,2.1,0.6,4.2,1.7,6l0.2,0.4l0.8-0.5l-0.1-0.2l1.8-1l-0.5-0.8l-1.8,1c-0.8-1.5-1.2-3.2-1.2-4.9c0-1.8,0.4-3.5,1.2-5l1.8,1
				l0.5-0.8l-1.8-1c0.4-0.6,0.9-1.3,1.4-1.8c1.9-2,4.5-3.1,7.2-3.2v2h1v-2c2.7,0.1,5.3,1.2,7.2,3.1c0.6,0.6,1.1,1.2,1.5,1.9l-1.8,1
				l0.5,0.8l1.8-1c0.8,1.5,1.2,3.2,1.2,5c0,1.8-0.4,3.6-1.2,5.1l-1.7-1l-0.5,0.8l1.7,1l-0.1,0.1l0.8,0.5l0.2-0.4
				c1.1-1.9,1.7-4,1.7-6.1C89.5,747.1,88.3,744.1,86,741.9z"/>
			<path fill-rule="evenodd" clip-rule="evenodd" fill="#FFFFFF" d="M77.7,752.2L77.7,752.2c-1.1,0-1.9-0.8-1.9-1.9s0.8-1.9,1.9-1.9
				c1,0,1.9,0.8,1.9,1.9C79.6,751.3,78.8,752.2,77.7,752.2z M78.9,747.7l-1.2-5.4l-1.4,5.5c-0.9,0.5-1.4,1.4-1.4,2.5
				c0,1.6,1.3,2.9,2.9,2.9h0c1.6,0,2.9-1.3,2.9-2.9C80.6,749.1,79.9,748.1,78.9,747.7z"/>
		</g>
	</g>
	<g>
		<path fill="#FFFFFF" d="M80.9,763.8h-5.3v-1.5h1.7v-5.2l-1.8,0.4V756l3.6-0.7v7.1h1.7V763.8z"/>
	</g>
</g>
<g>
	<g>
		<path fill="#9A9A9A" d="M152.3,750.3c0,10.9-8.8,19.7-19.7,19.7c-10.9,0-19.7-8.8-19.7-19.7c0-10.9,8.8-19.7,19.7-19.7
			C143.5,730.6,152.3,739.4,152.3,750.3z"/>
		<g>
			<path fill="#FFFFFF" d="M140.9,741.9c-2.2-2.2-5.2-3.4-8.3-3.4h-0.1c-3.2,0-6.1,1.3-8.3,3.5c-2.2,2.2-3.4,5.2-3.4,8.4
				c0,2.1,0.6,4.2,1.7,6l0.2,0.4l0.8-0.5l-0.1-0.2l1.8-1l-0.5-0.8l-1.8,1c-0.8-1.5-1.2-3.2-1.2-4.9c0-1.8,0.4-3.5,1.2-5l1.8,1
				l0.5-0.8l-1.8-1c0.4-0.6,0.9-1.3,1.4-1.8c1.9-2,4.5-3.1,7.2-3.2v2h0.9v-2c2.7,0.1,5.3,1.2,7.2,3.1c0.6,0.6,1.1,1.2,1.5,1.9
				l-1.8,1l0.5,0.8l1.8-1c0.8,1.5,1.2,3.2,1.2,5c0,1.8-0.4,3.6-1.2,5.1l-1.7-1l-0.5,0.8l1.7,1l-0.1,0.1l0.8,0.5l0.2-0.4
				c1.1-1.9,1.7-4,1.7-6.1C144.4,747.1,143.1,744.1,140.9,741.9z"/>
			<path fill-rule="evenodd" clip-rule="evenodd" fill="#FFFFFF" d="M132.6,752.2L132.6,752.2c-1.1,0-1.9-0.8-1.9-1.9
				c0-1,0.8-1.9,1.9-1.9c1.1,0,1.9,0.8,1.9,1.9C134.5,751.3,133.7,752.2,132.6,752.2z M133.8,747.7l-1.2-5.4l-1.4,5.5
				c-0.9,0.5-1.4,1.4-1.4,2.5c0,1.6,1.3,2.9,2.9,2.9h0c1.6,0,2.9-1.3,2.9-2.9C135.5,749.1,134.8,748.1,133.8,747.7z"/>
		</g>
	</g>
	<g>
		<path fill="#FFFFFF" d="M135.8,763.8h-5.5v-1.4l2.4-2.3c0.5-0.5,0.9-0.9,1-1.2c0.2-0.3,0.3-0.6,0.3-1c0-0.8-0.4-1.2-1.2-1.2
			c-0.7,0-1.4,0.3-2.1,0.9v-1.6c0.7-0.5,1.6-0.7,2.5-0.7c0.9,0,1.6,0.2,2.1,0.7c0.4,0.4,0.7,1,0.7,1.7c0,1-0.6,2-1.8,3l-1.7,1.5v0
			h3.4V763.8z"/>
	</g>
</g>
<g>
	<g>
		<path fill="#9A9A9A" d="M207.2,750.3c0,10.9-8.8,19.7-19.7,19.7c-10.9,0-19.7-8.8-19.7-19.7c0-10.9,8.8-19.7,19.7-19.7
			C198.4,730.6,207.2,739.4,207.2,750.3z"/>
		<g>
			<path fill="#FFFFFF" d="M195.8,741.9c-2.2-2.2-5.2-3.4-8.3-3.4h-0.1c-3.2,0-6.1,1.3-8.3,3.5c-2.2,2.2-3.4,5.2-3.4,8.4
				c0,2.1,0.6,4.2,1.7,6l0.2,0.4l0.8-0.5l-0.1-0.2l1.8-1l-0.5-0.8l-1.8,1c-0.8-1.5-1.2-3.2-1.2-4.9c0-1.8,0.4-3.5,1.2-5l1.8,1
				l0.5-0.8l-1.8-1c0.4-0.6,0.9-1.3,1.4-1.8c1.9-2,4.5-3.1,7.2-3.2v2h0.9v-2c2.7,0.1,5.3,1.2,7.2,3.1c0.6,0.6,1.1,1.2,1.5,1.9
				l-1.8,1l0.5,0.8l1.8-1c0.8,1.5,1.2,3.2,1.2,5c0,1.8-0.4,3.6-1.2,5.1l-1.7-1l-0.5,0.8l1.7,1l-0.1,0.1l0.8,0.5l0.2-0.4
				c1.1-1.9,1.7-4,1.7-6.1C199.3,747.1,198,744.1,195.8,741.9z"/>
			<path fill-rule="evenodd" clip-rule="evenodd" fill="#FFFFFF" d="M187.5,752.2L187.5,752.2c-1.1,0-1.9-0.8-1.9-1.9
				c0-1,0.8-1.9,1.9-1.9c1.1,0,1.9,0.8,1.9,1.9C189.4,751.3,188.6,752.2,187.5,752.2z M188.7,747.7l-1.2-5.4l-1.4,5.5
				c-0.9,0.5-1.4,1.4-1.4,2.5c0,1.6,1.3,2.9,2.9,2.9h0c1.6,0,2.9-1.3,2.9-2.9C190.4,749.1,189.7,748.1,188.7,747.7z"/>
		</g>
	</g>
	<g>
		<path fill="#FFFFFF" d="M189.8,761.4c0,0.8-0.3,1.4-0.8,1.8c-0.6,0.5-1.4,0.7-2.4,0.7c-0.9,0-1.6-0.1-2.1-0.4v-1.6
			c0.6,0.4,1.2,0.6,2,0.6c0.5,0,0.9-0.1,1.1-0.3s0.4-0.5,0.4-0.8c0-0.4-0.2-0.7-0.5-0.9c-0.3-0.2-0.8-0.3-1.3-0.3h-0.8v-1.4h0.7
			c1.1,0,1.6-0.4,1.6-1.1c0-0.7-0.4-1-1.3-1c-0.6,0-1.1,0.2-1.6,0.5v-1.5c0.6-0.3,1.3-0.4,2.1-0.4c0.9,0,1.6,0.2,2.1,0.7
			c0.4,0.4,0.6,0.9,0.6,1.4c0,1.1-0.6,1.8-1.7,2.1v0c0.6,0.1,1.1,0.3,1.4,0.7C189.7,760.4,189.8,760.9,189.8,761.4z"/>
	</g>
</g>
<path fill="#FEFEFE" d="M60.1,126.3C60.5,70.5,106,25.6,161.8,26c55.8,0.4,100.7,46,100.3,101.7c-0.4,55.8-46,100.7-101.7,100.3
	S59.7,182,60.1,126.3z"/>
<path fill-rule="evenodd" clip-rule="evenodd" fill="#DCDCDC" d="M120.6,197.2c2.5-1.4,4.8-3,6.2-5.5c2.3-4.1,4.7-7.7,7.7-11.4
	c2.1-2.5,3-5.1-0.1-7c-5.6-3.5-12.6-4.1-17.7-8.5c-2.8-2.4-5.7-4.9-8.2-7.6c-1.7-1.7-3.4-3.1-5.8-3.8c-2.9-0.9-8.1-0.7-10.9,0.4
	c-2.2,0.9-3.5,3.1-5.3,4.7c-3.4-8.1-5.6-16.9-6.2-26.1c1.8,0,3.6,0.2,5.3,0.7c1.5,0.5,2.5,1.2,4.1,1.1c4-0.3,2.7-2.2,1.3-4.5
	c-2.3-4-1.4-8.1,2.1-10.9c4.7-3.8,7-8.4,9.4-13.8c1.6-3.8,5.4-5.5,9-6.9c2.8-1.1,4.4-3.2,2.8-6.1c-1.7-3.1-4-6.8-7.1-8.5
	c-3.6-2-7.3-4-8.2-8.3l-0.1,0c7.3-8.7,16.3-15.9,26.6-21c1.8,3.8,1.8,8.3-0.4,12.1c-2.6,4.4-4,7.6,0.5,11.4c6.2,5.2,10.5-7,13-10.7
	c2.9-4.4,8.2-6.2,11.8-9.9c2.8-2.9,5.6-5.7,7.4-9.4c0.3-0.6,0.5-1.2,0.7-1.8c0.9,0,1.9,0,2.8,0c18.4,0,35.3,6.1,48.9,16.4l-3.7,2.1
	c-1.7,1.4-4.5,2.5-6.7,2.9c-3.4,0.6-5.6-1.3-8.4-3c-2.9-1.8-4.9-2.9-8.2-1.7c-5.3,1.9-11.4,6-14.6,10.8c-5.2,7.8,10.9,8.7,14.6,3.6
	c0.9-1.2,1.6-7.3,2.7-7.4c1.8-0.1,4.2,4.6,4.7,6c0.7,1.9,0.7,2.2-0.6,4.2c-1.7,2.5-4.2,4.8-6.6,6.6c-3.9,2.9-8.4,3.4-13.1,3.8
	c-6.8,0.6-8.3,7-7.7,13c0.7,6.9-9.2,0.4-9.2,6c0,4.6,5.3,6.6,9.2,5.9c2.3-0.4,4.7-1.8,5.6-4c0.5-1.2,0.1-2.7,0.7-3.8
	c1-1.7,2.5-1.6,4.1-1.5c6.2,0.4,12.1,0,18-2.3c2.3-0.9,7.5-4.8,10-2.7c2.4,2.1,1.1,10.7-0.1,13c-2.7,5.2-10.6,6.8-15.7,6.6
	c-6.4-0.2-12.2-3.2-18.7-2.9c-2.7,0.2-5.7,0.3-7.9,2c-2.4,1.9-3.9,5-4.9,7.9c-0.6,1.8-0.8,3.8-1.4,5.7c-0.9,3.1-2.4,5.8-2.9,9.1
	c-0.6,4.1-0.6,8.8,2.2,12.2c3.4,4,9.8,4.2,14.6,3.5c3.7-0.6,6.1-1,9.2,1.1c4.4,2.9,7.7,7.1,8.4,12.5c0.5,3.8-0.1,7.6,0.2,11.4
	c0.4,4.6,2.1,9,4.4,12.9c1.5,2.6,3.8,4.2,6.5,4.9c-10.3,4.7-21.7,7.3-33.7,7.3C146.4,208.1,132.5,204.1,120.6,197.2z M206.4,194.4
	c0.4-1.5,0.7-3.2,0.8-4.8c0.7-6.8-0.4-12.6,3.3-18.7c2.5-4.1,5.9-7.1,9.4-10.2c2.3-2,4.1-3.8,3.6-7.1c-0.3-1.7-1.1-3.7-2.1-5.2
	c-1.5-2.5-2.8-3.8-0.8-6.8c1.2-1.8,3.3-2.4,3.9-4.6c0.5-1.9-0.1-3.8-0.6-5.6c4.9-3.2,12.2-4.1,18.2-2.7
	C241.7,156.1,227.6,180.1,206.4,194.4z M161.2,34.5c-50.6,0-91.8,41.5-91.8,92.5c0,51,41.2,92.5,91.8,92.5
	c50.6,0,91.8-41.5,91.8-92.5C253,76,211.8,34.5,161.2,34.5z"/>
<g>
	<g>
		<path fill-rule="evenodd" clip-rule="evenodd" fill="#FFFFFF" d="M60.6,83c-2.8,0-5,2.2-5,5v46c0,2.8,2.2,5,5,5h20.5
			c2.8,0,6.6,1.6,8.5,3.5l8.5,8.5l8.5-8.5c2-2,5.8-3.5,8.5-3.5h20.5c2.8,0,5-2.2,5-5V88c0-2.8-2.2-5-5-5H60.6z"/>
		<path fill="#DCDCDC" d="M98.1,154.5c-0.9,0-1.8-0.3-2.5-1l-8.5-8.5c-1.3-1.3-4.2-2.5-6.1-2.5H60.6c-4.7,0-8.5-3.8-8.5-8.5V88
			c0-4.7,3.8-8.5,8.5-8.5h75c4.7,0,8.5,3.8,8.5,8.5v46c0,4.7-3.8,8.5-8.5,8.5h-20.5c-1.8,0-4.8,1.2-6.1,2.5l-8.5,8.5
			C99.9,154.2,99,154.5,98.1,154.5z M60.6,86.5c-0.8,0-1.5,0.7-1.5,1.5v46c0,0.8,0.7,1.5,1.5,1.5h20.5c3.7,0,8.4,2,11,4.6l6,6l6-6
			c2.6-2.6,7.3-4.6,11-4.6h20.5c0.8,0,1.5-0.7,1.5-1.5V88c0-0.8-0.7-1.5-1.5-1.5H60.6z"/>
	</g>
	<g>
		<circle fill-rule="evenodd" clip-rule="evenodd" fill="#FFFFFF" cx="98.1" cy="112" r="12"/>
		<path fill="#3F9FDA" d="M98.1,126.5c-8,0-14.5-6.5-14.5-14.5s6.5-14.5,14.5-14.5s14.5,6.5,14.5,14.5S106.1,126.5,98.1,126.5z
			 M98.1,102.5c-5.2,0-9.5,4.3-9.5,9.5s4.3,9.5,9.5,9.5s9.5-4.3,9.5-9.5S103.3,102.5,98.1,102.5z"/>
	</g>
</g>
<circle fill="#EDEDED" cx="160.9" cy="318.6" r="46.5"/>
<g>
	<path fill="#42A1DF" d="M194.9,318.5c0,18.8-15.2,34-34,34c-18.8,0-34-15.2-34-34c0-18.8,15.2-34,34-34
		C179.7,284.5,194.9,299.7,194.9,318.5z"/>
	<g>
		<path fill="#FFFFFF" d="M177.7,304.1h-33.5c-3.1,0-5.6,2.5-5.6,5.6c0,3.1,2.5,5.6,5.6,5.6c2.1,0,3.7-1.7,3.7-3.7
			c0-2.1-1.7-3.7-3.7-3.7c-1,0-1.8,0.8-1.8,1.8c0,1,0.8,1.8,1.8,1.8v-1.6c-0.1,0-0.2-0.1-0.2-0.2c0-0.1,0.1-0.2,0.2-0.2
			c1.1,0,2.1,0.9,2.1,2.1c0,1.1-0.9,2.1-2.1,2.1c-2.2,0-3.9-1.8-3.9-4c0-2.2,1.8-4,3.9-4h33.5c2.2,0,4,1.8,4,4c0,2.2-1.8,4-4,4
			c-1.1,0-2.1-0.9-2.1-2.1c0-1.1,0.9-2.1,2.1-2.1c0.1,0,0.2,0.1,0.2,0.2c0,0.1-0.1,0.2-0.2,0.2v1.6c1,0,1.8-0.8,1.8-1.8
			c0-1-0.8-1.8-1.8-1.8c-2,0-3.7,1.7-3.7,3.7c0,2,1.7,3.7,3.7,3.7c3.1,0,5.6-2.5,5.6-5.6C183.3,306.6,180.8,304.1,177.7,304.1z"/>
		<rect x="148.5" y="307.7" fill="#FFFFFF" width="24.8" height="1.6"/>
		<polygon fill="#FFFFFF" points="150,313.2 151.7,313.2 151.7,351.3 153.4,351.8 153.4,313.2 157.3,313.2 157.3,352.7 159,352.7 
			159,313.2 162.9,313.2 162.9,352.7 164.6,352.7 164.6,313.2 168.5,313.2 168.5,351.8 170.2,351.3 170.2,313.2 171.9,313.2 
			171.9,311.5 150,311.5 		"/>
	</g>
</g>
</svg>
