<?xml version="1.0" standalone="no"?><!-- Generator: Adobe Fireworks CS6, Export SVG Extension by Aaron Beall (http://fireworks.abeall.com) . Version: 0.6.1  --><!DOCTYPE svg PUBLIC "-//W3C//DTD SVG 1.1//EN" "http://www.w3.org/Graphics/SVG/1.1/DTD/svg11.dtd"><svg id="logo.fw-P%E1gina%201" viewBox="0 0 223 42" style="background-color:#ffffff00" version="1.1"	xmlns="http://www.w3.org/2000/svg" xmlns:xlink="http://www.w3.org/1999/xlink" xml:space="preserve"	x="0px" y="0px" width="223px" height="42px">	<g id="Capa%201">		<image visibility="hidden" x="0" y="0" width="223" height="42" xlink:href="logo_edi_beta.svg.images/image1.png"/>		<g>			<path id="Ellipse" d="M 0 21 C 0 9.4019 9.4019 0 21 0 C 32.5981 0 42 9.4019 42 21 C 42 32.5981 32.5981 42 21 42 C 9.4019 42 0 32.5981 0 21 Z" fill="#469fd8"/>			<g>				<g>					<path d="M 8 24 L 15 24 L 15 29 L 8 29 L 8 24 Z" fill="#ffffff"/>					<rect x="16.5" y="24" width="7" height="5" fill="#ffffff"/>					<rect x="25.5" y="24" width="7" height="5" fill="#ffffff"/>				</g>				<g>					<rect x="16.5" y="17" width="7" height="5" fill="#ffffff"/>					<rect x="25.5" y="17" width="7" height="5" fill="#ffffff"/>				</g>				<g>					<rect x="16.5" y="10" width="7" height="5" fill="#ffffff"/>				</g>			</g>		</g>		<g>			<path d="M 61.8594 19 L 61.8594 16.1875 L 57.75 16.1875 L 57.75 14.4375 L 61.3438 14.4375 L 61.3438 11.6406 L 57.75 11.6406 L 57.75 9.9063 L 61.5781 9.9063 L 61.5781 7.0938 L 54.1719 7.0938 L 54.1719 19 L 61.8594 19 L 61.8594 19 Z" fill="#333333"/>			<path d="M 74.6406 19 L 74.6406 7.0938 L 71.3125 7.0938 L 71.3125 12.4375 C 71.3125 13.0781 71.3281 13.5 71.3594 13.7031 L 71.3281 13.7031 C 71.2344 13.5 70.9844 13.125 70.5781 12.5625 L 66.5625 7.0938 L 63.1719 7.0938 L 63.1719 19 L 66.4844 19 L 66.4844 14 C 66.4844 13.2813 66.4688 12.625 66.4375 12.0313 L 66.4688 12.0313 C 66.6875 12.4063 66.9688 12.8125 67.2813 13.25 L 71.4844 19 L 74.6406 19 L 74.6406 19 Z" fill="#333333"/>			<path d="M 87.8438 7.0938 L 84.1094 7.0938 L 82.3438 14.375 C 82.2031 14.9375 82.1094 15.3906 82.0781 15.75 L 82 15.75 C 81.9844 15.4844 81.9063 15.0469 81.7656 14.4219 L 79.9375 7.0938 L 76.0781 7.0938 L 79.9219 19 L 83.9531 19 L 87.8438 7.0938 L 87.8438 7.0938 Z" fill="#333333"/>			<path d="M 92.75 19 L 92.75 7.0938 L 89.1719 7.0938 L 89.1719 19 L 92.75 19 L 92.75 19 Z" fill="#333333"/>			<path d="M 105.3906 19 L 104.2188 15.9688 C 103.7188 14.7188 103 13.9375 102.0625 13.6563 L 102.0625 13.625 C 103.8906 13.125 104.8125 12.0469 104.8125 10.3594 C 104.8125 8.1875 103.1875 7.0938 99.9375 7.0938 L 95.1719 7.0938 L 95.1719 19 L 98.75 19 L 98.75 14.8125 L 98.8906 14.8125 C 99.5469 14.8125 100.0781 15.3594 100.4531 16.4375 L 101.3438 19 L 105.3906 19 L 105.3906 19 ZM 99.5 9.5781 C 100.5 9.5781 101 10.0156 101 10.875 C 101 11.2813 100.8438 11.6094 100.5625 11.8906 C 100.2813 12.1719 99.8906 12.2969 99.4063 12.2969 L 98.75 12.2969 L 98.75 9.5781 L 99.5 9.5781 L 99.5 9.5781 Z" fill="#333333"/>			<path d="M 115.7813 17.4844 C 116.9219 16.3438 117.5 14.8594 117.5 13.0156 C 117.5 11.1875 116.9531 9.7031 115.8594 8.5781 C 114.7656 7.4531 113.3438 6.8906 111.6094 6.8906 C 109.7969 6.8906 108.3281 7.4844 107.2031 8.6719 C 106.0625 9.8594 105.5 11.3594 105.5 13.2031 C 105.5 14.9844 106.0625 16.4375 107.2031 17.5469 C 108.3281 18.6563 109.75 19.2031 111.4531 19.2031 C 113.1875 19.2031 114.625 18.6406 115.7813 17.4844 L 115.7813 17.4844 ZM 113.1094 10.7969 C 113.4844 11.3594 113.6875 12.1406 113.6875 13.1094 C 113.6875 14.0781 113.4844 14.8125 113.0781 15.3438 C 112.6719 15.875 112.1563 16.1406 111.5313 16.1406 C 110.8594 16.1406 110.3281 15.875 109.9219 15.3438 C 109.5156 14.8125 109.3125 14.0625 109.3125 13.0625 C 109.3125 12.0938 109.5 11.3281 109.9063 10.7813 C 110.2969 10.2344 110.8594 9.9531 111.5781 9.9531 C 112.2188 9.9531 112.7344 10.2344 113.1094 10.7969 L 113.1094 10.7969 Z" fill="#333333"/>			<path d="M 130.6406 19 L 130.6406 7.0938 L 127.3125 7.0938 L 127.3125 12.4375 C 127.3125 13.0781 127.3281 13.5 127.3594 13.7031 L 127.3281 13.7031 C 127.2344 13.5 126.9844 13.125 126.5781 12.5625 L 122.5625 7.0938 L 119.1719 7.0938 L 119.1719 19 L 122.4844 19 L 122.4844 14 C 122.4844 13.2813 122.4688 12.625 122.4375 12.0313 L 122.4688 12.0313 C 122.6875 12.4063 122.9688 12.8125 123.2813 13.25 L 127.4844 19 L 130.6406 19 L 130.6406 19 Z" fill="#333333"/>			<path d="M 147.6094 19 L 147.6094 7.0938 L 142.3125 7.0938 L 140.7969 13.5313 C 140.6406 14.25 140.5469 14.8438 140.5 15.3125 L 140.4531 15.3125 C 140.3594 14.5625 140.2656 13.9844 140.1719 13.5625 L 138.5469 7.0938 L 133.1719 7.0938 L 133.1719 19 L 136.3125 19 L 136.3125 13.3906 C 136.3125 12.8281 136.2656 11.6719 136.2031 9.9063 L 136.2969 9.9063 C 136.4844 11.0313 136.625 11.7031 136.6875 11.9219 L 138.5313 19 L 141.8906 19 L 143.6406 11.8438 C 143.7188 11.5313 143.8594 10.8906 144.0469 9.9063 L 144.1563 9.9063 C 144.0938 11.0938 144.0625 11.9375 144.0625 12.4688 L 144.0625 19 L 147.6094 19 L 147.6094 19 Z" fill="#333333"/>			<path d="M 157.8594 19 L 157.8594 16.1875 L 153.75 16.1875 L 153.75 14.4375 L 157.3438 14.4375 L 157.3438 11.6406 L 153.75 11.6406 L 153.75 9.9063 L 157.5781 9.9063 L 157.5781 7.0938 L 150.1719 7.0938 L 150.1719 19 L 157.8594 19 L 157.8594 19 Z" fill="#333333"/>			<path d="M 170.6406 19 L 170.6406 7.0938 L 167.3125 7.0938 L 167.3125 12.4375 C 167.3125 13.0781 167.3281 13.5 167.3594 13.7031 L 167.3281 13.7031 C 167.2344 13.5 166.9844 13.125 166.5781 12.5625 L 162.5625 7.0938 L 159.1719 7.0938 L 159.1719 19 L 162.4844 19 L 162.4844 14 C 162.4844 13.2813 162.4688 12.625 162.4375 12.0313 L 162.4688 12.0313 C 162.6875 12.4063 162.9688 12.8125 163.2813 13.25 L 167.4844 19 L 170.6406 19 L 170.6406 19 Z" fill="#333333"/>			<path d="M 182.5625 9.9063 L 182.5625 7.0938 L 172.25 7.0938 L 172.25 9.9063 L 175.5938 9.9063 L 175.5938 19 L 179.1875 19 L 179.1875 9.9063 L 182.5625 9.9063 L 182.5625 9.9063 Z" fill="#333333"/>			<path d="M 193.5313 19 L 189.6719 7.0938 L 185.2188 7.0938 L 181.1094 19 L 185 19 L 185.5625 16.8125 L 189.1094 16.8125 L 189.6406 19 L 193.5313 19 L 193.5313 19 ZM 188.4531 14.2656 L 186.1719 14.2656 L 187.0313 10.9531 C 187.1719 10.375 187.2656 9.9531 187.2969 9.6875 L 187.375 9.6875 C 187.4063 10.125 187.4844 10.5781 187.6094 11.0156 L 188.4531 14.2656 L 188.4531 14.2656 Z" fill="#333333"/>			<path d="M 202.8594 19 L 202.8594 16.1875 L 198.75 16.1875 L 198.75 7.0938 L 195.1719 7.0938 L 195.1719 19 L 202.8594 19 L 202.8594 19 Z" fill="#333333"/>			<path d="M 59.2031 33 C 61.0625 33 62.5625 32.4531 63.6875 31.3438 C 64.8125 30.2344 65.3906 28.75 65.3906 26.9063 C 65.3906 23.0313 63.2813 21.0938 59.0938 21.0938 L 54.1719 21.0938 L 54.1719 33 L 59.2031 33 L 59.2031 33 ZM 58.6719 23.9063 C 59.5781 23.9063 60.2969 24.2031 60.8125 24.7656 C 61.3125 25.3438 61.5781 26.0625 61.5781 26.9375 C 61.5781 27.9375 61.3125 28.7188 60.8125 29.3125 C 60.2969 29.9063 59.6094 30.1875 58.7656 30.1875 L 57.75 30.1875 L 57.75 23.9063 L 58.6719 23.9063 L 58.6719 23.9063 Z" fill="#333333"/>			<path d="M 74.8594 33 L 74.8594 30.1875 L 70.75 30.1875 L 70.75 28.4375 L 74.3438 28.4375 L 74.3438 25.6406 L 70.75 25.6406 L 70.75 23.9063 L 74.5781 23.9063 L 74.5781 21.0938 L 67.1719 21.0938 L 67.1719 33 L 74.8594 33 L 74.8594 33 Z" fill="#333333"/>			<path d="M 90.6094 33 L 90.6094 21.0938 L 85.3125 21.0938 L 83.7969 27.5313 C 83.6406 28.25 83.5469 28.8438 83.5 29.3125 L 83.4531 29.3125 C 83.3594 28.5625 83.2656 27.9844 83.1719 27.5625 L 81.5469 21.0938 L 76.1719 21.0938 L 76.1719 33 L 79.3125 33 L 79.3125 27.3906 C 79.3125 26.8281 79.2656 25.6719 79.2031 23.9063 L 79.2969 23.9063 C 79.4844 25.0313 79.625 25.7031 79.6875 25.9219 L 81.5313 33 L 84.8906 33 L 86.6406 25.8438 C 86.7188 25.5313 86.8594 24.8906 87.0469 23.9063 L 87.1563 23.9063 C 87.0938 25.0938 87.0625 25.9375 87.0625 26.4688 L 87.0625 33 L 90.6094 33 L 90.6094 33 Z" fill="#333333"/>			<path d="M 102.7813 31.4844 C 103.9219 30.3438 104.5 28.8594 104.5 27.0156 C 104.5 25.1875 103.9531 23.7031 102.8594 22.5781 C 101.7656 21.4531 100.3438 20.8906 98.6094 20.8906 C 96.7969 20.8906 95.3281 21.4844 94.2031 22.6719 C 93.0625 23.8594 92.5 25.3594 92.5 27.2031 C 92.5 28.9844 93.0625 30.4375 94.2031 31.5469 C 95.3281 32.6563 96.75 33.2031 98.4531 33.2031 C 100.1875 33.2031 101.625 32.6406 102.7813 31.4844 L 102.7813 31.4844 ZM 100.1094 24.7969 C 100.4844 25.3594 100.6875 26.1406 100.6875 27.1094 C 100.6875 28.0781 100.4844 28.8125 100.0781 29.3438 C 99.6719 29.875 99.1563 30.1406 98.5313 30.1406 C 97.8594 30.1406 97.3281 29.875 96.9219 29.3438 C 96.5156 28.8125 96.3125 28.0625 96.3125 27.0625 C 96.3125 26.0938 96.5 25.3281 96.9063 24.7813 C 97.2969 24.2344 97.8594 23.9531 98.5781 23.9531 C 99.2188 23.9531 99.7344 24.2344 100.1094 24.7969 L 100.1094 24.7969 Z" fill="#333333"/>			<path d="M 115.0313 29.4844 C 114.1406 29.9219 113.2656 30.1406 112.3906 30.1406 C 111.4531 30.1406 110.7031 29.875 110.1406 29.3281 C 109.5781 28.7813 109.2969 28.0313 109.2969 27.0625 C 109.2969 26.0938 109.5781 25.3438 110.1563 24.7813 C 110.7188 24.2344 111.4844 23.9531 112.4531 23.9531 C 113.4219 23.9531 114.2813 24.1719 115.0313 24.5781 L 115.0313 21.2656 C 114.0625 21.0156 113.0625 20.8906 112.0469 20.8906 C 110.0781 20.8906 108.4844 21.5 107.2969 22.6875 C 106.0938 23.875 105.5 25.4219 105.5 27.3281 C 105.5 29.1094 106.0313 30.5313 107.1094 31.5938 C 108.1875 32.6719 109.6875 33.2031 111.6094 33.2031 C 112.8906 33.2031 114.0313 33.0156 115.0313 32.6719 L 115.0313 29.4844 L 115.0313 29.4844 Z" fill="#333333"/>			<path d="M 127.3906 33 L 126.2188 29.9688 C 125.7188 28.7188 125 27.9375 124.0625 27.6563 L 124.0625 27.625 C 125.8906 27.125 126.8125 26.0469 126.8125 24.3594 C 126.8125 22.1875 125.1875 21.0938 121.9375 21.0938 L 117.1719 21.0938 L 117.1719 33 L 120.75 33 L 120.75 28.8125 L 120.8906 28.8125 C 121.5469 28.8125 122.0781 29.3594 122.4531 30.4375 L 123.3438 33 L 127.3906 33 L 127.3906 33 ZM 121.5 23.5781 C 122.5 23.5781 123 24.0156 123 24.875 C 123 25.2813 122.8438 25.6094 122.5625 25.8906 C 122.2813 26.1719 121.8906 26.2969 121.4063 26.2969 L 120.75 26.2969 L 120.75 23.5781 L 121.5 23.5781 L 121.5 23.5781 Z" fill="#333333"/>			<path d="M 140.5313 33 L 136.6719 21.0938 L 132.2188 21.0938 L 128.1094 33 L 132 33 L 132.5625 30.8125 L 136.1094 30.8125 L 136.6406 33 L 140.5313 33 L 140.5313 33 ZM 135.4531 28.2656 L 133.1719 28.2656 L 134.0313 24.9531 C 134.1719 24.375 134.2656 23.9531 134.2969 23.6875 L 134.375 23.6875 C 134.4063 24.125 134.4844 24.5781 134.6094 25.0156 L 135.4531 28.2656 L 135.4531 28.2656 Z" fill="#333333"/>			<path d="M 150.0313 29.4844 C 149.1406 29.9219 148.2656 30.1406 147.3906 30.1406 C 146.4531 30.1406 145.7031 29.875 145.1406 29.3281 C 144.5781 28.7813 144.2969 28.0313 144.2969 27.0625 C 144.2969 26.0938 144.5781 25.3438 145.1563 24.7813 C 145.7188 24.2344 146.4844 23.9531 147.4531 23.9531 C 148.4219 23.9531 149.2813 24.1719 150.0313 24.5781 L 150.0313 21.2656 C 149.0625 21.0156 148.0625 20.8906 147.0469 20.8906 C 145.0781 20.8906 143.4844 21.5 142.2969 22.6875 C 141.0938 23.875 140.5 25.4219 140.5 27.3281 C 140.5 29.1094 141.0313 30.5313 142.1094 31.5938 C 143.1875 32.6719 144.6875 33.2031 146.6094 33.2031 C 147.8906 33.2031 149.0313 33.0156 150.0313 32.6719 L 150.0313 29.4844 L 150.0313 29.4844 Z" fill="#333333"/>			<path d="M 162.0469 21.0938 L 158.25 21.0938 L 156.9844 24.9063 C 156.8906 25.1875 156.8125 25.5781 156.75 26.0781 L 156.7188 26.0781 C 156.6563 25.8906 156.625 25.6875 156.5938 25.5 C 156.5469 25.3281 156.4844 25.1094 156.4063 24.8438 L 155.125 21.0938 L 151 21.0938 L 154.6719 28.9219 L 154.6719 33 L 158.25 33 L 158.25 28.8594 L 162.0469 21.0938 L 162.0469 21.0938 Z" fill="#333333"/>			<path d="M 171.75 33 L 171.75 21.0938 L 168.1719 21.0938 L 168.1719 33 L 171.75 33 L 171.75 33 Z" fill="#333333"/>			<path d="M 185.6406 33 L 185.6406 21.0938 L 182.3125 21.0938 L 182.3125 26.4375 C 182.3125 27.0781 182.3281 27.5 182.3594 27.7031 L 182.3281 27.7031 C 182.2344 27.5 181.9844 27.125 181.5781 26.5625 L 177.5625 21.0938 L 174.1719 21.0938 L 174.1719 33 L 177.4844 33 L 177.4844 28 C 177.4844 27.2813 177.4688 26.625 177.4375 26.0313 L 177.4688 26.0313 C 177.6875 26.4063 177.9688 26.8125 178.2813 27.25 L 182.4844 33 L 185.6406 33 L 185.6406 33 Z" fill="#333333"/>			<path d="M 193.2031 33 C 195.0625 33 196.5625 32.4531 197.6875 31.3438 C 198.8125 30.2344 199.3906 28.75 199.3906 26.9063 C 199.3906 23.0313 197.2813 21.0938 193.0938 21.0938 L 188.1719 21.0938 L 188.1719 33 L 193.2031 33 L 193.2031 33 ZM 192.6719 23.9063 C 193.5781 23.9063 194.2969 24.2031 194.8125 24.7656 C 195.3125 25.3438 195.5781 26.0625 195.5781 26.9375 C 195.5781 27.9375 195.3125 28.7188 194.8125 29.3125 C 194.2969 29.9063 193.6094 30.1875 192.7656 30.1875 L 191.75 30.1875 L 191.75 23.9063 L 192.6719 23.9063 L 192.6719 23.9063 Z" fill="#333333"/>			<path d="M 208.8594 33 L 208.8594 30.1875 L 204.75 30.1875 L 204.75 28.4375 L 208.3438 28.4375 L 208.3438 25.6406 L 204.75 25.6406 L 204.75 23.9063 L 208.5781 23.9063 L 208.5781 21.0938 L 201.1719 21.0938 L 201.1719 33 L 208.8594 33 L 208.8594 33 Z" fill="#333333"/>			<path d="M 221.9375 33 L 218.4375 27 L 221.7813 21.0938 L 217.7813 21.0938 L 216.4375 24.2188 C 216.3125 24.4688 216.2188 24.875 216.1406 25.4063 L 216.0938 25.4063 C 216 24.9375 215.9063 24.5469 215.8125 24.25 L 214.6563 21.0938 L 210.3281 21.0938 L 213.5625 27.0625 L 210 33 L 214.2656 33 L 215.6406 29.7969 C 215.7188 29.6094 215.7813 29.3906 215.8281 29.1719 C 215.875 28.9531 215.9219 28.7813 215.9531 28.6563 L 215.9844 28.6563 C 216.0469 29.125 216.125 29.4844 216.25 29.7344 L 217.7188 33 L 221.9375 33 L 221.9375 33 Z" fill="#333333"/>		</g>		<g>			<path d="M 207.2362 10.0292 C 207.0063 9.8108 206.6778 9.6703 206.2836 9.6079 L 206.2836 9.5923 C 206.5957 9.4987 206.842 9.3427 207.0227 9.1086 C 207.2034 8.8746 207.3019 8.5937 207.3019 8.266 C 207.3019 7.9072 207.1541 7.6107 206.8913 7.3767 C 206.5957 7.127 206.1686 6.9866 205.6431 6.9866 L 203.9678 6.9866 L 203.9678 12.5881 L 205.6923 12.5881 C 206.2179 12.5881 206.6778 12.4477 207.0391 12.1512 C 207.4005 11.8704 207.5975 11.4803 207.5975 10.981 C 207.5975 10.6065 207.4662 10.2789 207.2362 10.0292 L 207.2362 10.0292 ZM 206.2507 9.1398 C 206.0372 9.3115 205.7416 9.3895 205.3638 9.3895 L 204.6576 9.3895 L 204.6576 7.5795 L 205.446 7.5795 C 206.2015 7.5795 206.5792 7.8604 206.5792 8.4065 C 206.5792 8.7185 206.4643 8.9682 206.2507 9.1398 L 206.2507 9.1398 ZM 206.5628 11.6987 C 206.3329 11.9016 206.0044 11.9952 205.5938 11.9952 L 204.6576 11.9952 L 204.6576 9.9824 L 205.446 9.9824 C 206.3986 9.9824 206.8749 10.3101 206.8749 10.9654 C 206.8749 11.2775 206.7599 11.5271 206.5628 11.6987 L 206.5628 11.6987 Z" fill="#333333"/>			<path d="M 212.3442 11.9952 L 209.9134 11.9952 L 209.9134 10.0448 L 212.0485 10.0448 L 212.0485 9.4519 L 209.9134 9.4519 L 209.9134 7.5795 L 212.2128 7.5795 L 212.2128 6.9866 L 209.2236 6.9866 L 209.2236 12.5881 L 212.3442 12.5881 L 212.3442 11.9952 L 212.3442 11.9952 Z" fill="#333333"/>			<path d="M 216.9102 6.9866 L 212.8205 6.9866 L 212.8205 7.5795 L 214.5286 7.5795 L 214.5286 12.5881 L 215.2184 12.5881 L 215.2184 7.5795 L 216.9102 7.5795 L 216.9102 6.9866 L 216.9102 6.9866 Z" fill="#333333"/>			<path d="M 219.9158 6.9866 L 219.2096 6.9866 L 216.9594 12.5881 L 217.715 12.5881 L 218.3062 11.0278 L 220.8027 11.0278 L 221.4268 12.5881 L 222.1988 12.5881 L 219.9158 6.9866 L 219.9158 6.9866 ZM 218.5362 10.4349 L 219.4559 8.0476 C 219.4888 7.954 219.5052 7.8292 219.538 7.6731 L 219.5545 7.6731 C 219.5873 7.8604 219.6202 7.9852 219.653 8.0476 L 220.5728 10.4349 L 218.5362 10.4349 L 218.5362 10.4349 Z" fill="#333333"/>		</g>	</g></svg>